<svg width="105" height="199" viewBox="0 0 105 199" fill="none" xmlns="http://www.w3.org/2000/svg">
<path d="M59.0269 101.908L59.1827 102.246C59.3675 102.996 59.5292 103.749 59.6908 104.501C59.8604 105.29 60.0299 106.079 60.2259 106.864L60.0758 107.033C59.8627 106.691 59.8059 106.111 59.7388 105.695L59.7178 105.807C59.6888 105.958 59.6567 106.067 59.6138 106.212C59.6134 106.214 59.6131 106.215 59.6127 106.216L59.3068 106.388C59.457 107.02 59.5221 107.04 59.2594 107.517C58.9972 106.644 58.7507 105.425 58.5171 104.27C58.3845 103.614 58.256 102.978 58.1312 102.438C58.3354 102.089 58.5713 102.094 59.0269 101.908Z" fill="#B58139"/>
<path d="M68.5288 51.7601C72.068 47.8726 73.4994 46.4216 78.2025 44.0314C78.2198 44.0567 78.2361 44.0806 78.2516 44.1035C78.4537 44.4005 78.5255 44.506 78.8551 44.7572C74.3164 46.3458 72.1417 48.6272 69.1539 52.3416C69.0405 52.2542 68.8416 52.0617 68.6817 51.907C68.6236 51.8507 68.5707 51.7995 68.5288 51.7601Z" fill="#B58139"/>
<path d="M19.1226 0.556279C20.0764 0.00280625 26.75 0.0212372 28.0216 0.053898C27.5755 0.223334 27.022 0.465118 26.4569 0.711966C25.6438 1.06711 24.8068 1.43274 24.2311 1.60847C23.4343 1.85168 22.9469 1.90845 22.5621 1.95328C21.8591 2.03516 21.4984 2.07718 20.2188 3.14313C20.3154 2.94887 20.7612 2.41629 21.1941 1.89923C21.5153 1.51555 21.8293 1.14041 21.9882 0.918394C21.5789 0.796633 20.7665 0.730477 20.1094 0.676965C19.6036 0.635776 19.1898 0.602078 19.1226 0.556279Z" fill="#B58139"/>
<path d="M6.20297 0.878281C7.78517 0.987466 9.28556 0.9736 10.8536 0.959108C11.0217 0.957555 11.1905 0.955995 11.3603 0.954578C11.3428 0.99447 11.3242 1.04065 11.3044 1.08996C11.2207 1.29765 11.1146 1.56092 10.9801 1.64427C9.98363 2.17226 8.53815 2.13093 7.44679 2.01641C6.60793 1.92834 6.55785 1.73239 6.48366 1.44204C6.44277 1.28204 6.39455 1.09336 6.20297 0.878281Z" fill="#B58139"/>
<path d="M29.4629 145.071L29.7433 145.266C29.8725 145.565 30.5957 148.662 30.7357 149.217C31.8005 153.442 33.2415 155.594 35.8662 158.99C34.9707 158.295 34.4156 157.793 33.676 156.95C31.7069 154.705 29.0601 148.121 29.3321 145.216L29.4629 145.071Z" fill="#B58139"/>
<path d="M0.393421 0.551493L0.0272395 0.355393L0 0.16783C0.857314 -0.242938 2.63374 0.195206 3.53415 0.472484C3.96999 0.467741 4.02892 0.47063 4.43454 0.626751C4.27728 0.986868 4.33408 1.28067 4.39269 1.5839C4.43162 1.78527 4.47135 1.9908 4.44972 2.22266C2.91439 1.81759 2.81317 2.01974 1.33516 1.98911C0.89919 1.98003 0.599957 1.00644 0.393421 0.551493Z" fill="#B58139"/>
<path d="M0.393421 0.551493L0.0272395 0.355393L0 0.16783C0.857314 -0.242938 2.63374 0.195206 3.53415 0.472484C2.66992 1.04357 1.38924 0.461912 0.393421 0.551493Z" fill="#B58139"/>
<path fill-rule="evenodd" clip-rule="evenodd" d="M30.9161 134.331C30.8981 134.37 30.8799 134.408 30.8612 134.446L30.9306 134.337L30.9161 134.331Z" fill="#B58139"/>
<path fill-rule="evenodd" clip-rule="evenodd" d="M30.9306 134.337L30.9161 134.331C30.8981 134.37 30.8799 134.408 30.8612 134.446L30.9306 134.337Z" fill="#B58139"/>
<path d="M16.3647 39.8469L16.377 22.6131C16.3773 22.205 16.3769 21.7932 16.3765 21.3781C16.3722 16.9158 16.3676 12.0866 17.1322 7.74234C17.4268 6.06835 18.8962 4.52892 20.0782 3.29051L20.2188 3.14313C20.3154 2.94887 20.7612 2.41629 21.1941 1.89923C21.5153 1.51555 21.8293 1.14041 21.9882 0.918394C21.5789 0.796633 20.7665 0.730477 20.1094 0.676965C19.6036 0.635776 19.1898 0.602078 19.1226 0.556279C17.8896 0.638271 16.6396 0.691495 15.3939 0.744537C14.035 0.802399 12.6812 0.860043 11.3603 0.954578C11.3428 0.99447 11.3242 1.04065 11.3044 1.08996C11.2207 1.29765 11.1146 1.56092 10.9801 1.64427C9.98363 2.17226 8.53815 2.13093 7.44679 2.01641C6.60793 1.92834 6.55785 1.73239 6.48366 1.44204C6.44277 1.28204 6.39455 1.09336 6.20297 0.878281C5.87278 0.85887 5.32356 0.769649 4.8687 0.695757C4.7075 0.66957 4.55808 0.645296 4.43454 0.626751C4.27728 0.986868 4.33408 1.28067 4.39269 1.5839C4.43162 1.78527 4.47135 1.9908 4.44972 2.22266C4.98959 3.22002 5.47068 3.71638 5.88819 4.14715C6.60521 4.88693 7.13472 5.43326 7.45248 7.99144C8.07635 13.0136 8.01632 17.8589 7.95438 22.8585C7.94763 23.403 7.94085 23.9502 7.93494 24.4987C7.89103 30.4595 7.88155 36.4205 7.90675 42.3814C8.03523 50.1012 8.09608 57.8219 8.08957 65.5427C8.09643 66.4489 8.13095 67.4024 8.16644 68.3826C8.35263 73.5252 8.56531 79.3996 4.94708 82.9939C4.45703 83.4808 3.30964 83.7388 2.37911 83.9481C1.72857 84.0944 1.18403 84.2169 1.04418 84.377C1.04782 84.5004 1.04576 84.5936 1.04411 84.6688C1.03885 84.9073 1.03759 84.9644 1.23459 85.2249C1.66384 85.3757 3.00631 85.2833 4.07265 85.2099C4.53151 85.1783 4.93976 85.1502 5.20146 85.1465C9.70101 85.0844 14.2179 85.1144 18.7368 85.1444C26.3474 85.1949 33.9636 85.2454 41.5125 84.856C41.4524 84.8591 42.3012 84.4109 42.373 84.3773L42.5103 84.4326C42.3457 85.218 39.8941 86.8156 38.1275 87.9667C37.4719 88.394 36.9105 88.7598 36.5956 88.9997C36.0105 89.4451 35.2653 89.8635 34.5192 90.2824C33.6885 90.7488 32.8565 91.2159 32.2429 91.7218C31.2531 92.5378 30.1293 93.3664 28.9804 94.2135C26.7827 95.8339 24.4931 97.522 22.8736 99.3193C18.8649 103.768 14.9092 109.665 13.7003 115.542C12.2233 122.722 12.3994 129.739 16.433 136.06C18.1455 138.765 22.3163 142.035 25.1715 143.508C25.6688 143.765 26.3115 143.992 26.9771 144.227C27.8056 144.52 28.6696 144.825 29.3321 145.216L29.4629 145.071L29.0782 144.831C29.0345 144.746 29.0002 144.685 28.9742 144.639C28.9327 144.566 28.9124 144.53 28.9091 144.492C28.906 144.456 28.9187 144.419 28.9437 144.345C28.956 144.309 28.9712 144.265 28.989 144.207C29.3256 143.981 29.3535 143.986 29.6462 144.042C29.7374 144.059 29.8544 144.081 30.0145 144.103L29.8208 143.843C29.7106 143.8 29.629 143.772 29.566 143.75L29.5648 143.75C29.4698 143.717 29.4169 143.699 29.3718 143.669C29.316 143.633 29.2714 143.579 29.1719 143.459L29.1712 143.458L29.1698 143.456C29.1378 143.418 29.1 143.372 29.0546 143.318L28.958 143.568C28.9492 143.566 28.9344 143.563 28.9169 143.561C28.866 143.553 28.792 143.541 28.7739 143.53C25.2944 141.432 21.4599 137.546 19.8831 134.196C15.8955 125.809 17.6622 118.93 21.9715 111.086C27.4854 101.048 37.5041 95.6268 47.3264 90.4649C49.0557 89.5561 50.8881 88.8096 52.7117 88.0666L52.7127 88.0662C54.0226 87.5325 55.3279 87.0007 56.5873 86.4119C56.6908 87.0936 56.7732 87.7972 56.8555 88.4996C56.9112 88.9749 56.9668 89.4496 57.0288 89.9165C57.0625 89.657 57.0601 89.2082 57.0576 88.7131C57.0524 87.7248 57.0463 86.5522 57.3237 86.3349C57.5703 86.703 57.5582 86.8116 57.5448 86.9328C57.5298 87.0678 57.5131 87.2183 57.8502 87.7605C57.872 87.2479 57.8101 86.6739 57.7523 86.1382L57.7521 86.1366L57.7515 86.1313L57.7513 86.1289C57.74 86.0243 57.7289 85.9212 57.7186 85.8204C59.7214 84.7554 61.755 83.7497 63.8171 82.8044C64.3967 82.5412 65.0306 82.2739 65.6803 82C66.9837 81.4504 68.3504 80.8742 69.468 80.2504C74.918 77.2083 80.4888 73.7417 85.5679 70.1126C88.4658 68.0423 91.6588 64.717 94.0214 62.0802C94.7036 61.3189 95.364 59.5309 95.7142 58.5622C97.2299 52.3123 96.4815 44.2935 89.1473 42.3936C84.1623 41.1022 82.4419 41.8232 78.2025 44.0314L78.2516 44.1035C78.4537 44.4005 78.5255 44.506 78.8551 44.7572C82.4535 43.6396 86.7598 42.7767 90.3297 44.5904C94.2913 46.603 95.1772 52.5313 93.1401 56.1832C91.7955 58.4914 90.0924 60.5409 88.0961 62.2927C86.2251 63.9344 84.1987 65.1015 82.1293 66.2935C81.4461 66.687 80.7583 67.0832 80.0698 67.5C75.7538 70.113 71.366 72.228 66.8142 74.381C66.1191 74.7098 65.4498 75.0457 64.7885 75.3776C63.0559 76.2472 61.3788 77.0889 59.4388 77.7012C59.0751 71.1201 62.8121 62.5377 65.9966 56.7736C66.3032 56.2185 66.8926 55.4303 67.4862 54.6535C67.5674 54.5472 67.6487 54.4411 67.7294 54.3359L67.7401 54.3219C68.3566 53.5176 68.9343 52.7641 69.1539 52.3416C69.0405 52.2542 68.8416 52.0617 68.6817 51.907C68.6236 51.8507 68.5707 51.7995 68.5288 51.7601C68.2611 51.9787 66.9218 53.7124 66.6121 54.1132L66.6045 54.1231C64.1615 57.2856 62.2673 61.7707 60.6848 65.5177L60.539 65.8628C60.0616 66.9924 59.6884 68.0988 59.3238 69.1797C58.4193 71.8612 57.5677 74.3859 55.3103 76.7186C51.562 80.5919 45.7229 82.5335 40.3252 82.4318C39.037 82.4074 37.666 82.423 36.2513 82.4489C36.0158 82.4532 35.7791 82.4579 35.5414 82.4626C35.5411 82.4626 35.5417 82.4626 35.5414 82.4626C35.4233 82.465 35.3041 82.4675 35.1856 82.4699C35.1852 82.4699 35.1859 82.4699 35.1856 82.4699C35.0668 82.4723 34.9465 82.4748 34.8272 82.4773H34.8262H34.8252H34.8241H34.8231C30.4781 82.5668 25.8525 82.662 22.0211 81.9547C21.0527 81.7758 19.0522 80.3288 18.3314 79.6079C16.2651 77.5413 16.1709 76.1988 16.1231 73.4586C16.0601 69.8489 16.1167 66.2857 16.1736 62.7092C16.1908 61.6299 16.2079 60.5494 16.2219 59.466L16.3647 39.8469Z" fill="#B58139"/>
<path d="M58.0103 101.977C58.3202 101.773 57.8174 101.841 58.5424 101.314C58.92 101.35 58.7742 101.288 59.0866 101.611L59.0476 100.866C58.5574 98.6351 58.3733 95.5082 58.1979 92.5291C58.0977 90.8263 58.0003 89.1718 57.8502 87.7605C57.5131 87.2183 57.5298 87.0678 57.5448 86.9328C57.5582 86.8116 57.5703 86.703 57.3237 86.3349C57.0463 86.5522 57.0524 87.7248 57.0576 88.7131C57.0601 89.2082 57.0625 89.657 57.0288 89.9165C57.0832 93.372 57.4046 98.5884 58.0103 101.977Z" fill="#B58139"/>
<path d="M38.7306 117.085C37.1808 119.148 33.2151 125.688 32.4353 127.939C32.5806 128.889 30.4856 132.345 30.687 134.229L30.9161 134.331C31.3599 133.362 31.5953 131.905 31.9685 130.971C32.4119 129.859 34.6053 124.379 35.64 124.05C38.1309 119.408 40.4654 115.254 44.3964 111.652C44.7722 111.285 45.1416 110.911 45.5108 110.538C46.7756 109.259 48.0373 107.984 49.5385 106.967C52.3454 105.066 54.8651 103.442 58.1312 102.438C58.3354 102.089 58.5713 102.094 59.0269 101.908L59.0866 101.611C58.7742 101.288 58.92 101.35 58.5424 101.314C57.8174 101.841 58.3202 101.773 58.0103 101.977C50.9441 103.895 43.1549 111.197 38.7306 117.085Z" fill="#B58139"/>
<path d="M71.2555 102.403C69.2449 100.377 61.7748 100.57 59.0476 100.866L59.0866 101.611L59.0269 101.908L59.1827 102.246C59.8131 102.304 60.4471 102.306 61.0859 102.309C61.8153 102.313 62.5508 102.316 63.2941 102.401C64.055 102.489 64.8327 102.544 65.6142 102.599C67.2818 102.717 68.9673 102.836 70.5462 103.274C70.7968 102.829 70.8408 102.713 71.2555 102.403Z" fill="#B58139"/>
<path d="M79.4226 111.121C78.1842 106.871 75.1209 104.412 71.2555 102.403C70.8408 102.713 70.7968 102.829 70.5462 103.274C73.2005 104.129 76.5792 107.191 77.7579 109.698C80.2961 115.096 79.8262 119.633 78.1695 125.09L78.114 125.317C78.1472 125.38 78.2233 125.472 78.284 125.545C78.2998 125.564 78.3145 125.582 78.3272 125.597L78.66 125.624C79.0026 125.386 79.1513 125.253 79.4535 124.974C79.8771 124.067 80.0033 123.173 80.1359 122.233C80.1649 122.028 80.1941 121.82 80.2268 121.61C80.8437 117.649 80.5308 114.922 79.4226 111.121Z" fill="#B58139"/>
<path d="M59.3068 106.388C59.457 107.02 59.5221 107.04 59.2594 107.517C59.6043 109.232 62.1968 116.319 63.086 117.889C63.9105 118.701 63.6931 119.255 64.5102 119.782C64.6514 119.874 64.8098 120.099 64.9135 120.237L65.1375 120.267C65.06 119.801 64.0355 117.487 63.1309 115.443C62.5291 114.084 61.9804 112.845 61.7988 112.349C61.2595 110.876 60.957 109.694 60.6144 108.355C60.4939 107.884 60.3684 107.393 60.2259 106.864L60.0758 107.033C59.8627 106.691 59.8059 106.111 59.7388 105.695L59.7178 105.807C59.6888 105.958 59.6567 106.067 59.6138 106.212L59.6127 106.216L59.3068 106.388Z" fill="#B58139"/>
<path d="M65.1375 120.267L64.9135 120.237C64.8098 120.099 64.6514 119.874 64.5102 119.782C63.6931 119.255 63.9105 118.701 63.086 117.889C63.2017 118.174 63.3329 118.503 63.4757 118.861L63.4785 118.868L63.4791 118.87C64.2786 120.874 65.4413 123.789 66.3015 125.116C66.5043 124.592 66.7123 124.449 67.1548 124.166C66.6938 123.394 66.2748 122.544 65.8594 121.701C65.6201 121.215 65.3819 120.732 65.1375 120.267Z" fill="#B58139"/>
<path d="M69.5717 129.164L69.9109 128.237L69.2563 126.874C68.7698 126.092 67.8991 125.656 67.7404 124.817L67.1548 124.166C66.7123 124.449 66.5043 124.592 66.3015 125.116L66.4307 125.378C66.1249 125.417 65.6835 125.366 65.2448 125.316C64.9178 125.278 64.5922 125.241 64.3253 125.241C63.7951 125.24 63.2512 125.234 62.7031 125.227L62.7013 125.227L62.2886 125.222C61.3249 125.211 60.3553 125.204 59.4301 125.236C60.7415 125.912 64.1246 125.066 65.5564 125.756C65.7115 125.832 65.9086 125.858 66.0804 125.886C66.2443 126.165 66.2142 126.023 66.2132 126.317C65.0189 126.26 62.9013 126.452 61.8873 126.999L61.8689 127.148C62.4838 127.038 63.0172 126.93 63.4882 126.834L63.4901 126.834C66.3894 126.245 66.9251 126.136 69.5717 129.164Z" fill="#B58139"/>
<path d="M59.4301 125.236C58.9415 125.154 56.0527 124.987 55.6945 125.187C55.7171 125.444 55.7409 125.695 55.7642 125.941C55.9851 128.272 56.1631 130.151 54.8739 132.434C54.7637 132.629 54.5987 132.827 54.4347 133.023C54.1668 133.343 53.9018 133.66 53.8838 133.958C54.7912 134.536 55.832 132.857 56.829 131.248C57.4648 130.223 58.0828 129.225 58.6371 128.861L58.9254 128.671C60.1119 127.888 60.35 127.731 61.8689 127.148L61.8873 126.999C62.9013 126.452 65.0189 126.26 66.2132 126.317C66.2142 126.023 66.2443 126.165 66.0804 125.886C65.9086 125.858 65.7115 125.832 65.5564 125.756C64.1246 125.066 60.7415 125.912 59.4301 125.236Z" fill="#B58139"/>
<path d="M67.7404 124.817C67.8991 125.656 68.7698 126.092 69.2563 126.874C69.6187 126.714 77.1587 126.534 77.465 126.623C77.709 126.393 77.7994 126.204 77.928 125.936C77.9476 125.895 77.9681 125.852 77.9902 125.807C78.0005 125.685 78.0435 125.546 78.0836 125.417L78.0895 125.398C78.098 125.37 78.1063 125.343 78.114 125.317L78.1695 125.09C76.3195 124.878 69.5711 124.703 67.7404 124.817Z" fill="#B58139"/>
<path d="M79.4535 124.974C79.1513 125.253 79.0026 125.386 78.66 125.624L78.3272 125.597C78.3145 125.582 78.2998 125.564 78.284 125.545C78.2233 125.472 78.1472 125.38 78.114 125.317C78.1063 125.343 78.098 125.37 78.0895 125.398L78.0836 125.417C78.0435 125.546 78.0005 125.685 77.9902 125.807C78.0929 125.853 78.1808 125.888 78.2566 125.918C78.598 126.054 78.6945 126.092 78.7953 126.622C79.3632 126.61 79.9513 126.594 80.5542 126.578C84.8328 126.463 89.8547 126.327 93.6399 127.382C92.5958 129.456 91.507 131.043 90.2911 132.816C89.9814 133.268 89.6635 133.731 89.336 134.218C88.5797 135.342 87.841 136.486 87.1019 137.632L87.1012 137.633C86.4367 138.662 85.772 139.693 85.0941 140.708C85.0803 140.733 85.0662 140.76 85.0517 140.788L85.0189 140.85C84.8924 141.093 84.7412 141.383 84.5605 141.525C82.3908 145.659 79.7112 149.669 77.0817 153.603C76.3828 154.649 75.6874 155.689 75.0061 156.725C73.9921 158.29 73.0136 159.956 72.0308 161.629C70.7073 163.882 69.3761 166.149 67.94 168.199C65.9733 171.006 64.1295 173.844 62.2811 176.69C60.9302 178.77 59.5766 180.854 58.171 182.931C57.1017 184.512 56.1311 186.119 55.1672 187.715C52.9778 191.339 50.8227 194.907 47.6248 197.982C49.1577 198.081 50.6825 198.076 52.2104 198.071H52.212C53.0917 198.068 53.9726 198.065 54.8567 198.081C62.7004 198.167 70.5448 198.187 78.389 198.142L92.1472 198.164C92.5372 198.165 93.0164 198.171 93.5527 198.178C96.133 198.211 100.036 198.261 101.687 197.802C102.72 196.065 105.509 186.027 104.777 184.797C104.351 184.993 104.196 185.556 104.064 186.034C104.041 186.118 104.018 186.2 103.995 186.276C102.911 189.863 99.4229 194.031 95.7261 195.055C91.7207 196.165 87.3091 196.167 83.1091 196.169C82.6046 196.169 82.1032 196.17 81.6059 196.172C78.3141 196.213 75.0218 196.234 71.7297 196.236C68.0981 196.257 64.7125 196.378 61.2119 196.502L61.2092 196.502L61.2063 196.502L61.2031 196.502C60.1194 196.541 59.0247 196.58 57.9082 196.616C59.2049 193.622 60.3658 191.939 61.7019 190.001C62.3631 189.043 63.0671 188.022 63.8518 186.749C65.7075 183.74 67.5957 180.789 69.4908 177.827L69.4917 177.826C70.3086 176.549 71.1272 175.27 71.9445 173.984C72.6809 172.978 73.3388 171.822 73.9945 170.67C74.6669 169.489 75.337 168.312 76.0869 167.304C78.3656 164.241 80.2213 161.239 82.2013 158.036L82.5944 157.4L89.4205 146.578C89.9023 145.808 90.3756 145.043 90.8461 144.284C92.5721 141.496 94.2614 138.768 96.2033 136.041C96.899 135.064 97.5209 134.02 98.1455 132.972C99.0734 131.414 100.007 129.847 101.197 128.474C101.705 127.889 103.096 126.042 103.256 125.34L103.095 125.151C102.353 124.936 100.146 124.906 98.9305 124.889H98.9289C98.746 124.886 98.5856 124.884 98.4562 124.882C94.3165 124.819 90.1762 124.84 86.0373 124.941C85.5983 124.948 85.0777 124.962 84.5179 124.976L84.5168 124.976C82.849 125.019 80.833 125.072 79.5855 124.983L79.4535 124.974Z" fill="#B58139"/>
<path d="M77.465 126.623C76.4448 128.48 74.9936 130.9 73.3493 132.289L73.3113 132.324L73.2553 132.374L73.2407 132.387L73.2237 132.402C73.0523 132.555 72.8422 132.742 72.7308 132.883L71.8772 133.885L72.108 133.96L72.6056 133.62L72.9395 133.725L73.0489 133.946C72.7821 134.317 72.5854 134.529 72.2799 134.858L72.2667 134.872L72.5186 135.111C72.9311 134.619 73.3534 134.134 73.7853 133.658L74.0728 133.025C75.6109 131.866 77.504 128.748 78.6161 126.917L78.7953 126.622C78.6945 126.092 78.598 126.054 78.2566 125.918C78.1808 125.888 78.0929 125.853 77.9902 125.807C77.9681 125.852 77.9476 125.895 77.928 125.936C77.7994 126.204 77.709 126.393 77.465 126.623Z" fill="#B58139"/>
<path d="M69.9109 128.237L69.5717 129.164C69.7021 129.319 69.9244 129.589 70.1935 129.915C71.0481 130.953 72.3746 132.562 72.7308 132.883C72.8422 132.742 73.0523 132.555 73.2237 132.402L73.2407 132.387L73.2553 132.374L73.3113 132.324L73.3493 132.289C71.6908 130.959 70.9998 130.094 69.9109 128.237Z" fill="#B58139"/>
<path d="M73.7853 133.658C74.7149 134.542 76.897 136.276 78.0106 136.857C78.0602 136.77 78.0725 136.686 78.0867 136.59C78.0905 136.564 78.0944 136.538 78.0993 136.51L77.7637 136.213C77.9283 136.066 78.118 136.052 78.3323 136.036C78.3735 136.033 78.4156 136.03 78.4587 136.026C78.3804 135.968 78.3007 135.908 78.2198 135.848L78.0125 135.694L78.0116 135.693C76.7885 134.781 75.3191 133.685 74.0728 133.025L73.7853 133.658Z" fill="#B58139"/>
<path d="M77.7637 136.213L78.0993 136.51C78.0944 136.538 78.0905 136.564 78.0867 136.59C78.0725 136.686 78.0602 136.77 78.0106 136.857C78.4833 137.274 79.475 137.924 80.3412 138.493C80.7724 138.776 81.1728 139.039 81.4622 139.242C81.7832 139.467 82.2055 139.794 82.6463 140.136L82.6476 140.137L82.6485 140.137L82.6497 140.138C83.3519 140.682 84.1004 141.262 84.5605 141.525C84.7412 141.383 84.8924 141.093 85.0189 140.85L85.0517 140.788C85.0662 140.76 85.0803 140.733 85.0941 140.708C84.6479 140.12 81.3432 137.937 79.4996 136.718L79.4981 136.717C79.0381 136.413 78.6692 136.169 78.4587 136.026C78.4156 136.03 78.3735 136.033 78.3323 136.036C78.118 136.052 77.9283 136.066 77.7637 136.213Z" fill="#B58139"/>
<path d="M72.108 133.96L71.8772 133.885C71.5024 134.205 70.9584 134.755 70.4088 135.311C69.7149 136.012 69.0119 136.723 68.6292 136.992C64.1407 140.148 58.3619 143.573 53.0762 144.939C53.2686 144.968 53.4263 144.973 53.5692 144.979C53.8795 144.99 54.1196 144.999 54.4933 145.233L54.24 145.165L54.4832 145.281L54.2476 145.202L54.4746 145.308L54.2702 145.237C54.1521 145.362 54.0661 145.435 53.9098 145.508L53.9394 145.537L53.9751 145.573C54.0776 145.676 54.166 145.765 54.3079 145.825C55.6802 145.409 60.0755 144.038 61.1678 143.44C64.1868 141.785 70.7231 137.783 72.5186 135.111L72.2667 134.872L72.2799 134.858C72.5854 134.529 72.7821 134.317 73.0489 133.946L72.9395 133.725L72.6056 133.62L72.108 133.96Z" fill="#B58139"/>
<path d="M34.7158 146.662C40.9907 148.037 48.2136 147.998 54.3079 145.825C54.166 145.765 54.0776 145.676 53.9751 145.573L53.9394 145.537L53.9098 145.508C54.0661 145.435 54.1521 145.362 54.2702 145.237L54.4746 145.308L54.2476 145.202L54.4832 145.281L54.24 145.165L54.4933 145.233C54.1196 144.999 53.8795 144.99 53.5692 144.979C53.4263 144.973 53.2686 144.968 53.0762 144.939C52.6079 144.931 51.1487 145.168 49.7909 145.389C48.8108 145.548 47.8836 145.699 47.42 145.743C40.9769 146.348 36.1772 146.168 30.0145 144.103C29.8544 144.081 29.7374 144.059 29.6462 144.042C29.3535 143.986 29.3256 143.981 28.989 144.207C28.9712 144.265 28.956 144.309 28.9437 144.345C28.9187 144.419 28.906 144.456 28.9091 144.492C28.9124 144.53 28.9327 144.566 28.9742 144.639C29.0002 144.685 29.0345 144.746 29.0782 144.831L29.4629 145.071L29.7433 145.266C30.3504 145.286 31.5862 145.69 32.7384 146.067C33.5041 146.318 34.2332 146.556 34.7158 146.662Z" fill="#B58139"/>
<path d="M32.4353 127.939C30.8557 130.759 28.5723 140.306 29.0546 143.318C29.1 143.372 29.1378 143.418 29.1698 143.456L29.1712 143.458L29.1719 143.459C29.2714 143.579 29.316 143.633 29.3718 143.669C29.4169 143.699 29.4698 143.717 29.5648 143.75L29.566 143.75C29.629 143.772 29.7106 143.8 29.8208 143.843C29.9537 143.27 30.1027 141.822 30.2402 140.485C30.3327 139.587 30.42 138.738 30.4938 138.239C31.4041 132.088 32.7686 129.499 35.5219 124.274L35.64 124.05C34.6053 124.379 32.4119 129.859 31.9685 130.971C31.5953 131.905 31.3599 133.362 30.9161 134.331L30.9306 134.337L30.8612 134.446C30.8799 134.408 30.8981 134.37 30.9161 134.331L30.687 134.229C30.4856 132.345 32.5806 128.889 32.4353 127.939Z" fill="#B58139"/>
</svg>
